<?xml version="1.0" encoding="UTF-8"?>
<svg id="Layer_1" data-name="Layer 1" xmlns="http://www.w3.org/2000/svg" version="1.1" viewBox="0 0 50 50">
  <defs>
    <style>
      .cls-1 {
        fill: #000;
      }

      .cls-1, .cls-2 {
        stroke-width: 0px;
      }

      .cls-2 {
        fill: #995858;
      }
    </style>
  </defs>
  <ellipse class="cls-1" cx="18.0226" cy="35" rx="18.0226" ry="15"/>
  <path class="cls-1" d="M36.2988,2.7556c0-2.1477-3.239-4.2814-4.8373-1.2478-.2757.5233-.3821,1.121-.3821,1.7125v31.6023c0,1.3278.9535,2.5527,2.2763,2.6677,1.4815.1288,2.7237-1.0356,2.7237-2.4902l.1086-17.23c.1086.0485.2151.0991.3335.1374,5.5812,1.8074,8.8962,6.0539,7.0112,9.5535-.3106.5767-.7168,1.724-.3593,2.3.4348.7004,1.5745.7303,2.1667.3217,8.1851-5.6459,4.2003-17.2797-1.3704-20.0802-5.5707-2.8005-7.671-4.6155-7.671-7.2468Z"/>
  <path class="cls-2" d="M-4.7341,32.5364"/>
</svg>