<?xml version="1.0" encoding="UTF-8"?>
<svg id="Layer_1" data-name="Layer 1" xmlns="http://www.w3.org/2000/svg" version="1.1" viewBox="0 0 50 50">
  <defs>
    <style>
      .cls-1 {
        fill: #000;
        stroke-width: 0px;
      }
    </style>
  </defs>
  <path class="cls-1" d="M37.284,2.5402c-4.8406,0-9.2435,2.8837-12.284,7.9792-3.0405-5.0941-7.4439-7.9782-12.2845-7.9792h-.0009c-3.3452,0-6.5012,1.3794-8.8853,3.8847C1.3597,9.0189,0,12.5904,0,16.4816c0,13.6254,23.4567,29.9161,24.4549,30.6035l.5451.3747.5446-.3747c.9991-.6873,24.4554-16.9781,24.4554-30.6035,0-8.7266-6.465-13.9414-12.716-13.9414ZM23.2797,13.3829l1.7203,3.44,1.7203-3.44c2.5287-5.0575,6.3796-7.958,10.5638-7.958,6.1542,0,9.8314,5.6218,9.8314,11.0568,0,10.6065-18.1143,24.5047-22.1154,27.4447-4.0006-2.94-22.1154-16.8401-22.1154-27.4447,0-3.1471,1.0775-6.0124,3.0339-8.0679,1.8339-1.9273,4.2476-2.9888,6.7956-2.9888l.0014-.9614h0v.9614c4.1856.0009,8.036,2.9015,10.5642,7.958Z"/>
</svg>