<?xml version="1.0" encoding="UTF-8"?>
<svg id="Layer_1" data-name="Layer 1" xmlns="http://www.w3.org/2000/svg" version="1.1" viewBox="0 0 1615.6 658.6">
  <defs>
    <style>
      .cls-1 {
        fill: #fff;
        stroke-width: 0px;
      }
    </style>
  </defs>
  <g>
    <path class="cls-1" d="M632.6,182.9c41.9,0,72.4,9.1,91.6,27.1,19.1,18.1,28.7,43.1,28.7,74.9s-3.9,36.9-11.8,53.6c-7.8,16.7-21,30.1-39.6,40.3-18.5,10.1-43.7,15.2-75.3,15.2h-32.1v107.1c0,8.8-7.8,16-17.3,16h-23.3c-9.6,0-17.3-7.1-17.3-16V211c0-15.5,13.6-28.1,30.5-28.1h65.9-.0001ZM629,232.5h-25.6c-5.1,0-9.2,3.8-9.2,8.5v94.8c0,4.7,4.1,8.5,9.2,8.5h17c23.5,0,41.7-4.4,54.5-13.3s19.2-23.5,19.2-43.8-5.3-32.1-15.8-41.2c-10.6-9-27-13.6-49.3-13.6h0v.1Z"/>
    <path class="cls-1" d="M816.3,505.5V194.5c0-6.4,5.6-11.6,12.5-11.6h32.8c6.9,0,12.5,5.2,12.5,11.6v260.5c0,6.4,5.6,11.6,12.5,11.6h109.7c6.9,0,12.5,5.2,12.5,11.6v27.4c0,6.4-5.6,11.6-12.5,11.6h-167.6c-6.9,0-12.5-5.2-12.5-11.6h0l.1-.1Z"/>
    <path class="cls-1" d="M1291.3,507.4l-23-69.1c-1.9-5.8-7.7-9.7-14.2-9.7h-99.7c-6.6,0-12.3,4-14.2,9.7l-22.6,69c-1.9,5.8-7.7,9.7-14.2,9.7h-30c-10.1,0-17.2-9.1-14.1-17.9l108.8-308.2c2-5.6,7.7-9.5,14.1-9.5h44.5c6.4,0,12.1,3.8,14.1,9.5l108.8,308.2c3.1,8.8-4,17.9-14.1,17.9h-30.1c-6.5,0-12.3-3.9-14.2-9.7h0l.0996.1ZM1222.2,291c-1.2-4.4-3-10.3-5.4-17.8s-4.7-15.2-7-23.2c-.5-1.9-1-3.7-1.5-5.4-1-3.5-6.4-3.5-7.4,0-.6,2.3-1.3,4.6-1.9,7-2.3,8.1-4.5,15.8-6.6,22.9-2.1,7.2-3.6,12.6-4.5,16.4l-26,78.5c-1.2,3.8,1.8,7.6,6.1,7.6h73.7c4.3,0,7.3-3.8,6.1-7.6l-25.6-78.6h0v.2Z"/>
    <path class="cls-1" d="M1494.9,311.7l61.7-123.3c1.7-3.3,5.3-5.5,9.3-5.5h39.6c7.5,0,12.5,7.3,9.2,13.5l-99.1,188.6c-.7,1.3-1,2.7-1,4.1v118.5c0,5.2-4.6,9.4-10.2,9.4h-37.4c-5.6,0-10.2-4.2-10.2-9.4v-116.2c0-1.4-.3-2.8-1-4.1l-99.2-191c-3.2-6.3,1.7-13.5,9.2-13.5h40.1c4,0,7.6,2.1,9.3,5.5l61.3,123.3c3.6,7.3,14.9,7.3,18.6,0h0l-.2001.1Z"/>
  </g>
  <g>
    <path class="cls-1" d="M220.387,402.2955h0c0,22.421-18.176,40.597-40.597,40.597h0c22.421,0,40.597,18.176,40.597,40.597h0c0-22.421,18.176-40.597,40.597-40.597h0c-22.421,0-40.597-18.176-40.597-40.597h0Z"/>
    <path class="cls-1" d="M475.26-.0035h-34.468C390.268-.0035,349.31,40.9545,349.31,91.4785v167.964c-36.251-26.188-80.776-41.631-128.914-41.631-121.721,0-220.396,98.675-220.396,220.396s98.675,220.396,220.396,220.396c119.459,0,216.708-95.043,220.283-213.635.062-.018.113-.066.113-.134V126.9145c0-19.571,15.865-35.435,35.435-35.435,24.327,0,44.218-18.99,45.657-42.955C523.473,22.0695,501.762-.0025,475.259-.0025l.001-.001ZM440.792,444.8345V126.9145c0-19.571,15.865-35.435,35.435-35.435,24.327,0,44.218-18.99,45.657-42.955C523.473,22.0695,501.762-.0025,475.259-.0025h-34.468C390.267-.0025,349.309,40.9555,349.309,91.4795v167.964M41.461,413.5665c-.531,3.744-3.741,6.449-7.416,6.449-.35,0-.705-.025-1.062-.075-4.094-.58-6.945-4.364-6.377-8.458.084-.593.17-1.18.259-1.774v-.002c.008-.051.014-.094.022-.144,0-.004.001-.009.002-.013.008-.05.013-.088.021-.138,0-.003,0-.007.002-.01.008-.05.014-.092.022-.143v-.006c.023-.151.046-.298.069-.449,0-.005.001-.009.002-.013.006-.038.014-.091.02-.129.002-.012.003-.021.005-.033.006-.038.012-.075.018-.113.002-.012.004-.024.006-.036.006-.038.011-.073.017-.111.002-.012.004-.024.006-.036.006-.038.013-.081.019-.119.001-.008.003-.018.004-.026.016-.101.031-.192.047-.293.001-.007.002-.014.004-.022l.02-.121c.002-.014.004-.028.007-.041.005-.031.011-.07.016-.101.003-.016.005-.034.008-.05.004-.025.011-.066.015-.091.003-.019.006-.037.009-.056.005-.031.01-.061.015-.093.003-.016.005-.032.008-.048.005-.032.012-.076.018-.107.002-.012.004-.025.006-.037.008-.051.015-.093.024-.143,0-.005.002-.011.003-.016.006-.038.014-.087.021-.125.003-.019.006-.038.009-.057.005-.032.009-.056.015-.087.003-.019.007-.039.01-.058.004-.025.01-.058.014-.083.003-.021.007-.042.011-.063.004-.025.009-.055.014-.081.004-.021.007-.041.011-.063.005-.032.009-.051.014-.083.003-.02.007-.04.01-.059.005-.032.011-.066.017-.098.003-.015.005-.03.008-.045.009-.051.015-.089.024-.139.003-.016.006-.034.009-.05.005-.031.01-.06.016-.091.004-.021.007-.042.011-.064.004-.025.009-.051.013-.077.004-.023.008-.048.012-.072.004-.025.008-.045.012-.07.004-.023.008-.047.012-.07.004-.025.008-.048.013-.074.004-.023.008-.045.012-.069.004-.025.009-.053.014-.078.004-.021.007-.042.011-.063.004-.025.011-.06.015-.086.006-.034.012-.069.018-.103.004-.025.011-.064.016-.09.004-.023.008-.046.012-.069.004-.025.008-.046.013-.072.004-.024.009-.048.013-.072.003-.019.009-.052.013-.07.004-.025.009-.048.013-.073.005-.025.007-.041.012-.066.005-.025.009-.051.014-.076.003-.019.009-.05.012-.069.004-.024.009-.048.013-.072.005-.025.009-.048.013-.073.004-.023.008-.045.012-.068.006-.031.012-.068.018-.1.006-.031.011-.063.017-.095.005-.025.01-.056.015-.082.004-.023.009-.047.013-.069.005-.025.009-.048.013-.074.004-.023.008-.045.012-.068.005-.025.009-.049.014-.075.004-.023.009-.046.013-.07.005-.025.009-.047.013-.072.004-.023.009-.047.013-.07.005-.025.009-.047.013-.072.004-.024.009-.046.013-.07.005-.025.011-.06.016-.085.003-.018.007-.037.01-.054.009-.05.016-.087.026-.138.003-.018.007-.038.01-.056.005-.025.011-.061.016-.086l.012-.066c.005-.025.009-.05.014-.075.004-.023.009-.047.013-.069.005-.025.009-.05.014-.075.004-.022.009-.045.013-.067.005-.025.009-.05.014-.075.004-.023.009-.045.013-.068.005-.025.01-.051.015-.077.004-.022.008-.043.012-.065.005-.025.012-.063.017-.089.005-.026.01-.052.015-.078.006-.032.015-.08.021-.112.004-.021.008-.04.012-.061.005-.025.011-.055.016-.081.004-.022.009-.046.013-.068.005-.025.01-.05.015-.075.004-.022.009-.044.013-.066.005-.025.01-.053.015-.078.004-.021.008-.043.013-.064.006-.032.01-.052.016-.083.004-.019.008-.039.011-.058.006-.031.012-.06.018-.092.003-.016.007-.034.01-.051.01-.05.018-.09.028-.141.001-.007.003-.014.004-.021.008-.038.016-.081.024-.119.004-.019.007-.037.011-.057.006-.031.011-.056.017-.088.004-.019.007-.037.011-.057.006-.031.011-.055.017-.087l.012-.057c.005-.025.013-.063.018-.088.004-.019.008-.037.011-.056.006-.032.012-.059.018-.09.003-.017.007-.035.011-.052.008-.038.015-.072.022-.11.002-.01.005-.022.007-.033.01-.05.019-.093.029-.144.002-.009.004-.018.005-.027.008-.038.016-.077.023-.115.003-.016.007-.033.01-.05.006-.031.013-.062.019-.093.004-.018.008-.037.011-.055.006-.031.012-.061.019-.092.003-.016.007-.033.01-.049.008-.038.013-.064.021-.102.003-.014.006-.027.008-.041.008-.038.017-.082.025-.12.002-.007.003-.015.005-.022.021-.101.041-.196.062-.297,0-.003.001-.007.002-.009.009-.044.018-.088.028-.132.003-.012.005-.025.008-.037.008-.038.015-.071.023-.109.003-.013.006-.026.008-.039.008-.038.015-.069.023-.107.003-.013.006-.027.008-.04.008-.038.016-.075.024-.113.002-.01.005-.021.007-.031.009-.044.02-.095.03-.139v-.003c.022-.101.043-.199.064-.3,0-.003.001-.007.002-.01.01-.044.019-.09.029-.134.002-.01.004-.018.006-.027.008-.038.017-.081.026-.119.002-.011.005-.021.007-.032.008-.038.017-.079.025-.117.002-.009.004-.019.006-.028.008-.038.02-.093.029-.131.001-.005.002-.009.003-.014.044-.202.087-.395.131-.597,0-.004.002-.008.003-.012.011-.051.019-.088.031-.138,0-.004.002-.007.003-.011,1.27-5.701,2.803-11.386,4.609-17.056v-.004c.017-.05.031-.093.047-.143,0-.003.002-.006.003-.008.016-.05.031-.096.047-.146v-.002c.048-.151.095-.295.143-.445.002-.007.005-.014.007-.021.012-.038.027-.083.039-.121.004-.012.008-.023.011-.035.012-.038.023-.072.036-.11.004-.013.008-.025.012-.038.012-.038.022-.068.034-.106.004-.013.009-.027.013-.04.012-.038.024-.074.036-.111.004-.011.007-.021.01-.032.016-.05.031-.094.047-.144,6.498-19.847,15.868-37.95,27.5-53.998.074-.102.148-.204.222-.305.461-.634.925-1.263,1.393-1.89,5.248-7.031,10.935-13.657,17.007-19.847,8.059-8.216,16.797-15.669,26.089-22.295,16.406-11.698,34.54-20.82,53.717-27.017,19.177-6.197,39.396-9.469,59.971-9.471h.021c20.17.002,40.68,3.148,60.89,9.765.055.018.11.036.166.054.019.006.04.013.058.019.036.012.073.024.109.036.019.006.049.016.068.022.033.011.066.022.099.033.019.006.052.017.07.023.033.011.065.022.098.032.019.006.053.018.072.024.037.012.077.026.115.038.031.01.064.021.095.032.037.012.074.025.112.037.025.008.053.018.078.026.029.01.06.02.089.03.031.01.051.017.082.027.027.009.054.018.081.027.031.01.056.019.087.029.026.009.051.017.077.026.031.01.056.019.088.029.025.009.051.017.076.026.056.019.117.04.173.059.021.007.043.015.063.021.037.013.06.02.097.033.022.008.044.015.066.023.031.01.066.022.097.033.022.008.044.015.066.023.031.011.064.022.095.032.022.008.044.015.067.023.037.013.062.021.1.034.012.004.023.008.036.012.081.028.176.06.257.088.004.001.007.002.01.004.037.013.076.026.114.039.017.006.033.012.05.017.037.013.07.024.108.037.017.006.034.012.051.017.037.013.074.026.111.039.015.005.029.01.044.015.037.013.079.027.116.04.004.001.006.002.01.004.099.034.189.066.288.1h0c.043.015.079.028.122.043.012.004.025.009.037.013.037.013.081.028.118.042.013.005.027.009.04.014.037.013.081.028.118.042.012.004.022.008.035.012.186.065.363.128.548.194.01.004.021.008.031.011.037.013.085.03.122.043.011.004.022.008.033.012.043.016.081.029.125.044.007.003.016.006.024.009.191.068.379.136.57.205.002,0,.005.002.007.003.049.018.088.032.137.05.006.002.012.004.018.006.049.018.086.031.135.049.004.001.008.003.012.004.197.072.38.138.576.21.002,0,.006.002.008.003.049.018.088.032.137.05.005.002.011.004.016.006.049.018.088.032.137.05.003,0,.004.002.007.003.196.072.387.143.583.216h0c.049.018.094.035.143.053.003,0,.006.002.008.003.049.018.094.035.142.053h0c.245.092.488.183.732.276h.001c.293.111.583.222.875.334q.002,0,.004.002c.049.019.095.036.144.055h0c.828.319,1.651.641,2.472.97h.002c.29.116.577.231.866.349,0,0,.002,0,.003.001.241.098.478.194.718.293,0,0,.002,0,.003.001.048.02.089.036.137.056.005.002.009.004.013.005.048.02.089.036.137.056,0,0,.002,0,.003.001.192.079.376.155.568.235.003.001.005.002.008.003.048.02.085.035.132.055.006.003.012.005.018.008.042.017.089.037.131.055.004.002.008.003.011.005.186.077.368.154.553.232.007.003.012.005.019.008.042.018.085.036.127.053.007.003.014.006.021.009.042.018.088.037.129.055.004.002.008.004.012.005.185.078.362.153.547.232.008.003.016.007.024.01.042.018.078.033.12.051.011.005.021.009.032.014.042.018.076.033.118.05.009.004.02.008.028.012.178.076.355.152.533.229.008.003.018.008.026.011.042.018.075.032.117.051.012.005.023.01.035.015.042.018.074.032.116.05.01.004.021.009.031.013.136.059.267.116.403.176h.002c.036.016.077.034.112.049.014.006.029.012.043.019.036.016.069.03.105.046.016.007.033.015.049.022.036.016.066.029.102.045.017.007.032.014.049.021.118.052.243.107.361.159.011.005.023.01.034.015.036.016.06.026.095.042.021.01.041.018.062.027.03.013.065.029.094.042.019.008.037.016.056.025.029.013.069.031.098.044.018.008.036.016.053.024.035.016.065.029.101.045.011.005.019.009.03.013.071.032.151.068.222.099.012.006.025.011.037.017.035.016.063.029.099.044.019.008.037.017.056.025.029.013.067.03.096.043.019.009.04.018.059.026.029.013.062.028.092.041.021.01.042.019.063.029.029.013.063.029.093.042.015.007.03.013.044.02.071.032.13.059.201.091.015.007.03.014.045.02.029.013.062.028.091.041.023.01.044.02.067.031.029.013.055.025.084.038.024.011.045.021.069.032.029.013.057.026.086.039.023.01.045.021.068.031.029.013.057.026.086.04.024.011.047.022.071.032.047.021.1.046.146.067.026.012.052.024.078.036.029.013.05.023.079.036.026.012.051.024.076.035.029.013.051.024.08.037.025.011.051.023.075.035.029.014.049.023.078.036.026.012.053.025.079.037.029.014.047.022.076.036.034.016.069.032.103.048.035.016.059.027.094.044.034.016.068.031.102.047.023.011.047.022.07.032.03.014.057.027.087.041.023.011.049.023.072.034.027.013.054.025.081.038.029.014.047.022.076.036s.057.027.086.04c.018.008.048.023.066.031.044.021.088.041.132.062.017.008.031.014.048.023.041.019.084.04.125.059.017.008.039.019.057.027.033.016.066.031.099.047.017.008.044.021.062.029.032.015.066.031.098.047.017.008.038.018.056.026.036.017.072.034.109.052.017.008.031.015.048.023.051.024.103.049.154.073l.007.003c.049.023.098.047.146.07.017.008.035.017.052.025.035.017.071.034.106.051.017.008.036.018.054.026.035.017.069.033.103.049.017.008.037.018.055.026.037.018.073.035.111.053.012.005.033.016.044.021.104.05.208.1.312.151.012.006.027.013.039.019.039.019.078.038.117.057.017.008.031.015.048.023.037.018.075.036.112.054.017.008.028.013.045.022.04.019.08.039.12.058.012.006.026.013.038.018.105.051.21.102.315.154.012.006.017.008.029.014.043.021.087.042.13.064.017.009.019.01.036.018.041.02.082.04.122.06.011.006.026.013.037.018.046.022.092.045.138.068.006.003.012.006.017.009.107.053.216.106.322.159.006.003.011.006.017.009.046.023.093.046.138.068.011.006.022.011.034.017.044.022.087.043.131.065.006.003.019.009.024.012.051.025.101.05.152.076.006.003,0,0,.005.003.109.054.217.109.327.163l.008.004c.051.025.1.05.151.076.006.003.014.007.019.01.047.024.094.047.141.071.006.003.016.008.021.011.215.108.429.217.644.326.006.003.007.003.012.006.051.026.102.052.152.078l.008.004c.218.111.434.222.652.333h.002c.052.028.106.056.158.083l.007.003c3.817,1.966,7.548,4.047,11.191,6.237h0c.207.125.413.25.62.375.005.003.004.002.009.006.049.03.097.059.146.089l.008.005c.154.094.308.188.462.282l.005.003c.048.029.097.059.144.088.005.003.012.008.018.011.044.027.086.053.129.079.011.007.015.009.026.016.046.028.091.056.137.084.005.003.004.002.009.006.1.062.201.124.301.186.011.007.013.008.023.014.041.025.081.05.122.075.016.01.02.012.036.022.039.024.076.047.115.071.011.007.022.014.033.021.041.025.081.05.122.076.011.007.015.009.026.016.097.06.194.121.291.181.005.003.012.007.017.011,3.509,2.196,4.576,6.819,2.383,10.331-1.422,2.277-3.868,3.528-6.368,3.528-1.357,0-2.73-.368-3.966-1.14-12.336-7.705-25.672-13.929-39.637-18.502-18.28-5.985-37.203-9.02-56.236-9.02h-.008c-18.782,0-37.408,2.943-55.359,8.744-17.743,5.734-34.437,14.13-49.62,24.957-31.526,22.48-54.578,53.875-66.664,90.791-3.323,10.149-5.76,20.609-7.245,31.086l.0091.0049ZM69.041,450.4455c.253,3.304-2.221,6.188-5.525,6.44-.156.012-.311.018-.464.018-3.106,0-5.735-2.394-5.976-5.542-.002-.032-.005-.064-.007-.097v-.003c-.005-.063-.01-.127-.015-.19v-.008c-.005-.061-.01-.123-.014-.184,0-.005,0-.01-.001-.016-.004-.059-.009-.119-.013-.178,0-.011,0-.009-.001-.02-.002-.029-.004-.057-.006-.086v-.003c-.002-.029-.004-.058-.006-.087q0-.011-.002-.022c-.002-.029-.004-.058-.006-.086v-.004c-.002-.028-.004-.056-.006-.084,0-.011,0-.012-.002-.023-.002-.028-.004-.055-.006-.083,0-.005,0-.01-.001-.015-.002-.024-.003-.049-.005-.073,0-.011-.001-.019-.002-.029-.002-.025-.003-.051-.005-.077,0-.005-.001-.018-.002-.023-.002-.022-.003-.043-.005-.065,0-.011-.001-.021-.002-.032-.001-.021-.003-.043-.004-.064-.001-.016-.002-.027-.003-.043-.001-.019-.003-.038-.004-.057,0-.011-.001-.023-.002-.034-.002-.024-.003-.047-.005-.071,0-.011-.001-.022-.002-.033-.001-.019-.002-.038-.004-.057,0-.011-.002-.024-.002-.035l-.004-.067c0-.016-.002-.025-.003-.041-.001-.017-.002-.035-.003-.052,0-.011-.002-.026-.002-.037-.001-.023-.003-.045-.004-.068,0-.011-.002-.031-.003-.042,0-.015-.002-.031-.003-.046-.001-.016-.002-.025-.003-.042,0-.016-.002-.032-.003-.047-.002-.027-.002-.04-.004-.067,0-.013-.002-.026-.002-.039,0-.016-.002-.028-.003-.045,0-.016-.002-.033-.003-.049-.001-.022-.003-.042-.004-.064,0-.013-.001-.025-.002-.038,0-.016-.002-.028-.003-.045,0-.015-.002-.031-.003-.046-.001-.022-.003-.048-.004-.07,0-.011-.001-.022-.002-.034,0-.016-.002-.034-.003-.05,0-.007,0-.015-.001-.022-.002-.033-.004-.06-.005-.093,0-.01-.001-.02-.002-.03,0-.016-.002-.034-.003-.05,0-.009-.001-.019-.002-.028-.002-.027-.003-.06-.005-.087,0-.011-.001-.022-.002-.033,0-.016-.002-.034-.003-.05v-.009c-.002-.033-.004-.075-.006-.108,0-.009,0-.017-.001-.026,0-.016-.002-.036-.003-.053v-.005c-.002-.038-.004-.072-.006-.11,0-.01-.001-.021-.002-.031-.001-.027-.003-.052-.004-.079,0-.012-.001-.024-.002-.037,0-.016-.002-.034-.003-.05,0-.01,0-.02-.002-.03-.003-.054-.006-.113-.009-.168,0-.01-.001-.02-.002-.03-.002-.033-.004-.071-.005-.103v-.012c0-.016-.002-.034-.003-.05,0-.011-.001-.021-.002-.032-.003-.054-.006-.112-.008-.167,0-.009,0-.019-.001-.028-.002-.033-.003-.058-.005-.091,0-.009,0-.017-.001-.026,0-.016-.002-.035-.002-.051,0-.01,0-.019-.001-.028-.003-.055-.006-.115-.008-.169,0-.01,0-.019-.001-.028-.002-.033-.003-.067-.005-.1v-.016c0-.016-.002-.038-.002-.054,0-.009,0-.017-.001-.026-.001-.033-.003-.07-.005-.102v-.015c0-.016-.002-.039-.002-.055,0-.008,0-.016-.001-.024-.001-.033-.003-.063-.004-.096,0-.008,0-.016-.001-.023,0-.016-.002-.037-.002-.053,0-.008,0-.016-.001-.024-.002-.038-.003-.07-.005-.108v-.009c0-.022-.001-.034-.002-.056,0-.008,0-.016-.001-.024-.001-.033-.003-.066-.004-.098v-.02c0-.022-.001-.032-.002-.054v-.025c-.001-.033-.003-.062-.004-.095v-.023c0-.022-.001-.032-.002-.054v-.024c-.001-.033-.003-.065-.004-.098v-.022c0-.022-.001-.033-.002-.055v-.022c-.001-.033-.002-.064-.004-.097v-.024c0-.016-.001-.035-.002-.052,0-.011,0-.022-.001-.032-.001-.033-.002-.051-.003-.084,0-.01,0-.021-.001-.031,0-.022-.001-.03-.002-.052v-.027c-.001-.033-.002-.058-.003-.091v-.027c0-.022-.001-.03-.002-.052,0-.01,0-.021-.001-.032,0-.027-.002-.053-.003-.08,0-.012,0-.024-.001-.036,0-.016-.001-.032-.002-.048,0-.012,0-.023-.001-.035,0-.022-.002-.057-.003-.079,0-.012,0-.023-.001-.035,0-.016-.001-.032-.002-.048,0-.013,0-.025-.001-.037,0-.022-.002-.052-.002-.074,0-.013,0-.027-.001-.04,0-.011-.001-.034-.001-.045,0-.016-.001-.031-.002-.047,0-.022-.001-.041-.002-.063,0-.015,0-.029-.001-.044,0-.011,0-.033-.001-.044,0-.017-.001-.034-.002-.051,0-.016-.001-.043-.002-.059,0-.015,0-.03-.001-.044,0-.016,0-.029-.001-.045,0-.014,0-.029-.001-.043,0-.022-.001-.048-.002-.07,0-.013,0-.025-.001-.038,0-.016,0-.03-.001-.046,0-.016,0-.032-.001-.048,0-.016-.001-.046-.002-.062,0-.015,0-.03-.001-.045,0-.016,0-.025-.001-.042l-.002-.066c0-.011,0-.032-.001-.043,0-.016,0-.032-.001-.048,0-.016,0-.024-.001-.041,0-.022-.001-.045-.002-.068v-.04c0-.017,0-.034-.001-.052v-.038c0-.025-.001-.05-.002-.074v-.037c0-.016,0-.031-.001-.047v-.04c0-.025-.001-.049-.002-.074v-.036c0-.017,0-.034-.001-.051v-.038c0-.025-.001-.05-.002-.075v-.035c0-.017,0-.033-.001-.05s0-.023,0-.039c0-.025,0-.049-.002-.074v-.035c0-.018,0-.035-.001-.053v-.036c0-.025-.001-.05-.002-.075v-.198c-.002-.011-.002-.022-.002-.033v-.088c0-.026,0-.052-.001-.078v-.12c0-.026,0-.052-.001-.078v-.12c0-.026,0-.052-.001-.079v-.12c0-.026,0-.053-.001-.079v-2.3041c0-2.07.038-4.124.114-6.176.027-.73.059-1.457.095-2.185.039-.774.084-1.553.133-2.324.039-.609.081-1.213.127-1.819.011-.146.022-.289.033-.435,3.132-40.067,20.688-76.094,47.47-102.88.279-.279.563-.561.844-.838,29.528-29.105,70.053-47.083,114.777-47.136h.199c3.314,0,6,2.686,6,6s-2.686,6-6,6c-40.546,0-78.664,15.789-107.334,44.459-28.67,28.67-44.459,66.789-44.459,107.334,0,3.916.151,7.872.448,11.757l-.0511-.0018ZM220.386,503.3275c-35.699,0-64.639-28.94-64.639-64.639s28.94-64.639,64.639-64.639,64.639,28.94,64.639,64.639-28.94,64.639-64.639,64.639h0ZM238.808,595.5335c-.507-3.275,1.736-6.34,5.011-6.847,35.401-5.482,67.876-23.514,91.445-50.774,23.806-27.535,36.916-62.774,36.916-99.224,0-11.815-1.36-23.578-4.043-34.963-.76-3.225,1.238-6.456,4.464-7.216.463-.109.926-.161,1.381-.161,2.719,0,5.181,1.86,5.834,4.62.038.16.075.321.113.481v.002c.005.021.009.037.014.058,0,.002,0,.004.001.006.005.021.008.034.013.055,0,.003.002.008.002.011.005.021.007.032.012.053,0,.004.001.006.002.01.005.021.008.033.012.054,0,.003.001.006.002.009.017.072.036.155.052.228.001.005.003.012.004.017.004.015.007.031.011.046.002.007.003.012.004.018.002.01.008.035.01.046.002.007.003.012.004.019.004.016.007.032.011.048.001.005.002.009.003.015.004.016.008.033.011.049.001.005.003.011.004.016.012.052.025.108.036.16,0,.005.002.01.003.014.004.016.006.027.01.043.002.009.004.017.006.026.002.01.007.029.009.04.002.008.004.017.006.025.002.01.007.03.009.04.002.009.004.018.006.027.004.016.005.024.009.039.002.009.004.017.006.026.003.016.005.024.009.039.003.012.005.023.008.035.005.021.008.034.012.055.003.013.006.027.009.039.002.01.005.022.007.033.003.012.005.023.008.035.002.01.005.021.007.031.003.011.005.024.008.035.002.01.005.024.008.035l.007.031c.002.01.005.024.008.035.002.011.005.022.007.033.003.016.004.018.007.033.003.013.006.026.008.038.002.01.004.017.006.027.003.013.005.024.008.037.005.021.009.042.014.062.002.01.005.022.007.032.002.01.005.021.007.031.003.012.005.023.008.035.001.005.005.025.007.03.003.014.006.026.009.041.002.01.003.016.006.026.003.014.006.027.009.041.002.01.004.016.006.027.003.015.006.029.01.044.001.005.004.017.005.023.005.021.009.042.014.063.001.005,0-.003,0,.002.005.024.01.047.015.071v.003c.005.022.01.043.015.064.001.005.003.014.004.02l.011.049c.001.005.003.014.004.019.004.016.007.033.011.049.0013.0067.003.0137.005.021.004.016.007.032.01.049.001.005.003.014.004.019.004.018.007.035.011.052.001.005.002.011.003.016.015.068.03.138.044.207.001.005.002.008.003.013.004.018.008.036.011.054.001.005.003.014.004.019.004.017.007.034.011.051.001.005.003.012.004.017.004.018.008.037.012.055.001.005.001.007.003.012.005.022.01.045.014.067h0c.015.072.03.143.045.214v.006c.006.021.01.042.015.063.001.005,0,.004.002.009.004.02.008.04.013.06.001.005.002.007.003.013l.013.063v.005c.026.118.05.237.075.355v.004c.005.022.01.046.015.068v.002c1.428,6.928,2.417,14.017,2.94,21.235v.003c.002.024.004.049.005.073h0c.011.149.021.298.031.447v.003c.01.148.021.298.03.446v.004c.002.023.003.046.005.069v.007c.002.023.004.046.005.069v.004c.01.149.02.298.029.447h0c.008.126.015.25.023.375v.002c.001.023.003.047.004.07v.008c.002.022.003.044.004.066v.008c.001.023.003.045.004.068v.005c.006.098.012.197.017.295v.007c.001.022.003.045.004.067v.008c.002.021.003.044.004.065v.01c.006.099.011.196.016.295v.004c.001.023.003.047.004.07,0,.005,0-.001,0,.004.001.023.002.046.004.069v.006c.002.024.003.046.004.07v.003c.005.1.011.199.016.299h0c.001.024.002.048.004.071v.009c.001.022.002.044.003.066v.007c.001.023.002.045.003.068v.006c.005.099.01.197.015.295v.01c0,.021.002.042.003.063v.011c.002.02.003.041.004.061v.014c0,.022.002.042.003.064v.008c.004.074.007.147.01.22v.013c.001.02.002.04.003.06v.015c0,.019.002.038.003.057v.016c0,.02.002.038.003.058v.016c0,.019.002.038.002.057v.016c.002.049.004.098.006.146,0,.005,0-.003,0,.002,0,.023.002.046.003.069v.016c0,.018.002.038.002.056v.021c0,.018.001.035.002.053v.018c0,.019.001.037.002.056v.017c0,.02.002.042.003.063v.008c.002.049.004.099.006.149v.002c.001.023.002.045.003.068v.017c0,.019.001.038.002.057v.016c0,.019.001.038.002.057v.016c0,.021.001.041.002.061v.011c0,.024.002.045.003.069,0,.005,0-.001,0,.004.002.049.004.098.005.147v.012c.001.02.002.04.003.06v.016c0,.019.001.037.002.056v.019c0,.019.001.037.002.056v.015c0,.02.001.039.002.059v.015c.003.073.005.147.007.22v.009c0,.02.002.04.002.06v.02c0,.018.001.036.002.054v.019c0,.018.001.036.002.054v.018c0,.021.001.042.002.062v.009c.002.049.003.098.005.148v.005c0,.022.001.043.002.065v.022c0,.017,0,.032.001.049v.026c0,.015,0,.031.001.046v.028c0,.016,0,.031.001.047v.022c0,.018,0,.036.001.054v.018c.001.048.003.096.004.144v.015c0,.02,0,.038.001.058v.019c0,.017,0,.035.001.052v.023c0,.017,0,.033.001.05v.023c0,.017,0,.033.001.05v.021c0,.02.001.04.002.06v.012c.001.049.002.097.004.145v.017c0,.018,0,.036.001.055v.025c0,.016,0,.031.001.047v.026c0,.015,0,.031.001.046v.097c0,.017,0,.033.001.05v.024c0,.023,0,.047.001.07v.019c0,.017,0,.034.001.052v.316c0,.021,0,.041.001.062v.009c0,.025,0,.047.001.072v.46c0,.023,0,.047.001.07v.386c0,.047.001.096.002.143v1.446h0v2.392c0,.044,0,.083-.001.127v.4659c0,.044-.001.084-.002.128v.277c0,.011,0,.029-.001.04v.214c0,.022,0,.04-.001.062v.469c0,.016,0,.029-.001.045v.019c0,.044-.002.084-.003.128v.004c0,.022,0,.037-.001.059v.4051c0,.016,0,.026-.001.043v.022c0,.022-.001.04-.002.062v.012c0,.016,0,.034-.001.05v.025c0,.016,0,.023-.001.039v.024c0,.011,0,.027-.001.038v.089c0,.011,0,.026-.001.037v.027c0,.011,0,.028-.001.039v.023c0,.011,0,.028-.001.039v.025c0,.016,0,.026-.001.043v.02c0,.016-.001.037-.002.054v.01c0,.022-.001.04-.002.061v.094c0,.011,0,.022-.001.033v.028c0,.011,0,.024-.001.035v.03c0,.011,0,.023-.001.034v.027c0,.011,0,.025-.001.036v.028c0,.011,0,.026-.001.037v.025c0,.016,0,.022-.001.038v.026c0,.016-.001.03-.002.046v.015c0,.022-.001.042-.002.064v.003c0,.022-.001.039-.002.061v.012c0,.016-.001.033-.002.05v.023c0,.016,0,.025-.001.042v.022c0,.011,0,.029-.001.04v.025c0,.011,0,.028-.001.039v.025c0,.011,0,.025-.001.036,0,.01,0,.018-.001.028,0,.011,0,.025-.001.036v.026c0,.016,0,.026-.002.042v.02c0,.016-.001.032-.002.049v.015c0,.022-.001.039-.002.061v.028c0,.016,0,.02-.001.036v.025c0,.016,0,.022-.001.038v.026c0,.011,0,.025-.001.036v.027c0,.011,0,.025-.001.036,0,.01,0,.018-.001.028,0,.011-.001.027-.001.038v.023c0,.011-.001.031-.002.042v.022c0,.016,0,.025-.002.041v.022c0,.016,0,.025-.002.042v.022c-.002.044-.003.081-.005.125v.021c0,.016-.001.025-.002.042,0,.007,0,.017-.001.025,0,.011-.001.027-.002.038,0,.01,0,.015-.001.025,0,.011-.001.029-.002.04v.023c0,.011-.001.028-.002.038,0,.01,0,.016-.001.026,0,.011-.001.027-.002.038,0,.007,0,.017-.001.025,0,.011-.001.027-.002.038,0,.007,0,.018-.001.025,0,.016-.001.029-.002.046v.016c0,.022-.002.041-.003.063h0c0,.022-.002.043-.003.065v.008c0,.022-.001.033-.002.055v.019c0,.016-.001.026-.002.043,0,.01,0,.015-.001.025,0,.011-.001.026-.002.037,0,.007,0,.02-.001.027,0,.011-.001.026-.002.036,0,.01,0,.016-.001.026,0,.011-.001.024-.002.035,0,.012,0,.018-.001.03,0,.011-.001.022-.002.033,0,.01,0,.019-.001.029,0,.011-.001.023-.002.034,0,.01,0,.019-.001.029,0,.016,0,.02-.002.036,0,.01,0,.015-.001.025,0,.011-.001.027-.002.038,0,.017-.002.039-.003.057,0,.011,0,.018-.001.029,0,.01,0,.02-.001.029,0,.011-.001.023-.002.033,0,.01,0,.019-.001.028,0,.011-.001.024-.002.035,0,.01,0,.02-.001.03,0,.011,0,.019-.001.03,0,.012-.001.022-.002.034,0,.011,0,.018-.001.029,0,.01-.001.022-.002.032,0,.011-.001.021-.002.032,0,.01-.001.02-.002.03,0,.011-.001.023-.002.034,0,.01-.001.02-.002.03,0,.005-.001.022-.001.028,0,.012-.001.023-.002.036,0,.011-.001.021-.002.032,0,.01-.001.019-.002.029-.001.022-.002.039-.003.061,0,.01-.001.021-.002.031,0,.011,0,.019-.002.03,0,.012-.001.025-.002.038,0,.005,0,.018-.001.023,0,.012-.001.025-.002.037,0,.005-.001.021-.001.027,0,.012,0,.019-.002.031,0,.011-.001.021-.002.031,0,.01-.001.023-.002.033,0,.011,0,.018-.002.029,0,.01-.001.022-.002.032,0,.011-.001.02-.002.031,0,.01-.001.022-.002.032,0,.011-.001.024-.002.035,0,.007,0,.018-.001.025,0,.016-.001.022-.002.039,0,.01,0,.016-.001.026-.001.022-.002.039-.003.061v.017c0,.016-.002.028-.003.044,0,.01-.001.019-.002.029,0,.016-.001.019-.002.035,0,.01-.001.019-.002.029,0,.011-.001.02-.002.031,0,.01-.001.022-.002.032,0,.011-.001.021-.002.032,0,.01-.001.019-.002.029,0,.011-.001.022-.002.033,0,.01-.001.02-.002.029,0,.011-.001.025-.002.036,0,.007-.001.018-.001.026,0,.011-.001.025-.002.036,0,.01-.001.018-.002.028,0,.016,0,.017-.002.033,0,.01-.001.02-.002.03,0,.011-.001.022-.002.033,0,.01-.001.019-.002.029-.001.022-.002.039-.004.06,0,.01,0,.017-.002.027,0,.016-.001.019-.002.035,0,.01-.001.021-.002.031,0,.005-.001.026-.002.031,0,.01-.001.02-.002.03,0,.011-.001.022-.002.033,0,.012-.001.019-.002.031,0,.011-.001.021-.002.031,0,.01-.001.019-.002.029,0,.011-.001.022-.002.033,0,.01-.001.021-.002.03,0,.011-.001.023-.002.033,0,.01-.001.018-.002.027,0,.011-.001.021-.002.032,0,.012-.001.021-.002.033,0,.005-.001.019-.002.024,0,.012-.001.024-.002.036,0,.0073-.0004.0146-.001.022-.002.025-.003.053-.005.077q0,.011-.001.022c0,.012-.002.025-.002.037,0,.005-.001.018-.001.024,0,.012-.002.024-.002.036,0,.005-.001.022-.002.027,0,.01-.001.022-.002.032,0,.011-.001.02-.002.031,0,.01-.001.02-.002.03,0,.011-.002.023-.002.034,0,.01-.001.018-.002.028,0,.011-.001.022-.002.033,0,.01-.001.021-.002.031,0,.011-.002.023-.002.034,0,.01-.001.017-.002.027,0,.016-.001.021-.002.037,0,.007-.001.017-.002.025-.001.016-.002.027-.003.043,0,.007,0,.012-.001.02-.002.022-.003.039-.004.061,0,.007,0,.012-.001.02-.001.016-.002.028-.003.044,0,.005,0,.014-.001.019-.001.016-.002.027-.003.044,0,.01,0,.015-.002.025,0,.011-.002.026-.003.036,0,.007-.001.021-.002.028,0,.011-.001.022-.002.032,0,.01-.002.022-.002.032,0,.011-.001.019-.002.03,0,.01-.001.021-.002.031,0,.011-.002.022-.002.033,0,.01-.001.02-.002.03,0,.011-.002.022-.002.033,0,.01-.001.019-.002.029,0,.011-.001.02-.002.031,0,.012-.001.02-.002.032-.001.016-.002.026-.003.043,0,.007-.001.019-.002.026-.001.016-.002.036-.004.052,0,.01-.001.017-.002.027-.001.016-.001.02-.003.036,0,.01-.001.019-.002.029,0,.011-.001.02-.002.031,0,.01-.002.023-.002.032,0,.011-.002.021-.002.032,0,.01-.001.019-.002.029,0,.011-.002.022-.002.033,0,.01-.001.019-.002.029,0,.011-.002.024-.003.035,0,.007-.001.02-.002.027,0,.011-.002.024-.003.035,0,.01-.001.018-.002.028-.001.016-.001.02-.003.036,0,.007-.001.019-.002.026,0,.011-.002.021-.002.032-.003.042-.006.085-.01.127,0,.011,0,.013-.002.024,0,.012-.002.025-.003.038,0,.005-.001.018-.002.024,0,.01-.002.025-.003.034,0,.011-.001.018-.002.029,0,.012-.002.021-.003.033,0,.011-.001.019-.002.029,0,.01-.002.021-.002.031,0,.011-.002.021-.002.032,0,.012-.001.02-.002.032,0,.011-.001.019-.002.03,0,.01-.002.021-.002.031,0,.005-.002.025-.002.031,0,.01-.002.023-.003.033,0,.005-.002.025-.002.031,0,.01-.002.019-.002.029,0,.011-.002.022-.003.032-.002.02-.003.039-.005.058,0,.011-.002.021-.003.032,0,.01-.001.014-.002.024-.001.016-.002.021-.003.037l-.002.025c-.001.016-.002.023-.003.04,0,.007-.001.016-.002.023,0,.011-.002.026-.003.036,0,.01-.002.02-.002.029,0,.011-.002.023-.003.034,0,.01-.001.019-.002.028,0,.011-.002.022-.003.033,0,.01-.002.019-.002.029,0,.011-.002.022-.003.033,0,.01-.002.021-.003.031,0,.005-.002.021-.002.026-.001.012-.002.024-.003.036,0,.011-.002.021-.003.031,0,.01-.002.019-.002.029-.002.022-.003.039-.005.061,0,.007-.001.015-.002.022-.001.016-.002.022-.003.038-.001.012-.002.022-.003.035,0,.005-.002.021-.002.026,0,.01-.002.025-.003.035,0,.005-.002.023-.002.028,0,.01-.002.02-.002.03,0,.011-.002.021-.003.032,0,.01-.002.021-.003.031,0,.011-.002.02-.003.031,0,.01-.002.021-.003.03,0,.011-.002.019-.003.03-.001.012-.002.021-.003.034,0,.005-.002.023-.002.028,0,.01-.002.022-.003.031-.001.016-.001.018-.003.034,0,.01-.002.019-.002.028,0,.011-.002.024-.003.035-.002.02-.003.032-.005.052,0,.011-.002.023-.003.034,0,.01-.002.022-.003.032,0,.011-.002.02-.003.031,0,.01-.002.023-.003.033,0,.005-.002.022-.002.028-.001.012-.002.024-.003.036,0,.005-.002.019-.002.025-.001.012-.002.026-.003.038q0,.011-.002.022c-.001.012-.002.024-.003.036,0,.011-.002.02-.003.031,0,.012-.001.017-.003.03,0,.011-.002.021-.003.032,0,.01-.002.02-.003.03,0,.011-.002.021-.003.032-.001.012-.002.019-.003.031,0,.011-.002.02-.003.031,0,.01-.002.021-.003.031-.002.021-.003.038-.005.06,0,.007-.001.016-.002.024-.001.016-.002.022-.003.038,0,.01-.002.019-.003.029-.001.016-.001.017-.003.033,0,.01-.002.018-.003.027,0,.011-.002.025-.003.035,0,.01-.002.019-.003.029,0,.011-.002.021-.003.031,0,.01-.002.022-.003.032,0,.011-.002.019-.003.029-.001.012-.002.022-.003.034,0,.011-.001.016-.002.026-.001.012-.002.022-.003.034,0,.005-.002.023-.003.028,0,.01-.002.024-.003.034,0,.005-.002.02-.002.025-.001.012-.002.024-.003.036-.001.011-.001.012-.002.023-.002.022-.004.043-.006.065,0,.011-.002.022-.003.033-.001.015-.002.024-.004.038,0,.005-.001.014-.002.02-.001.015-.003.028-.004.043,0,.005-.001.013-.002.019-.001.012-.003.029-.004.042l-.002.019c-.001.012-.003.027-.004.039,0,.011-.001.015-.002.025,0,.01-.002.025-.003.035,0,.011-.001.014-.002.025-.001.012-.002.024-.004.036,0,.005-.002.021-.003.026-.001.012-.002.023-.003.036,0,.005-.002.019-.002.024-.001.012-.002.024-.004.036-.001.011-.001.012-.002.022-.005.051-.01.103-.015.155,0,.005,0-.004,0,.002-.001.015-.003.027-.004.042,0,.005-.001.015-.002.02-.001.012-.003.028-.004.04,0,.005-.001.015-.002.02-.001.012-.003.027-.004.04,0,.005-.002.016-.002.021-.001.015-.003.026-.004.041-.001.011,0,.008-.002.019-.001.015-.002.025-.004.04,0,.005-.002.017-.002.022-.001.012-.003.029-.004.041,0,.005,0,.009-.001.015-.002.017-.003.028-.005.045v.012c-.008.071-.016.141-.023.212v.015c-.003.015-.004.026-.006.041,0,.005-.002.015-.002.02-.001.012-.002.024-.004.036-.001.011-.002.017-.003.027-.001.012-.002.023-.004.035-.001.011-.001.014-.003.024-.001.012-.003.025-.004.037-.001.011-.001.014-.003.025-.001.012-.003.026-.004.038,0,.005-.001.015-.002.02-.001.012-.003.029-.004.041,0,.005-.001.014-.002.02-.001.015-.003.027-.004.042l-.002.015c-.002.015-.003.031-.005.045v.003c-.004.034-.007.062-.01.096-.001.011,0,.008-.002.019-.002.015-.003.028-.005.043,0,.005-.001.011-.002.017-.001.015-.003.026-.004.041,0,.005-.002.015-.002.021-.001.012-.003.028-.004.041,0,.005-.002.014-.002.019-.001.012-.003.027-.004.039-.001.011-.001.012-.002.023-.001.012-.003.028-.004.04,0,.005-.001.014-.002.019-.001.012-.003.028-.004.04,0,.005-.002.017-.002.022-.002.015-.003.025-.004.039,0,.005-.002.016-.002.021-.002.015-.003.024-.004.038q-.001.011-.002.022c-.003.029-.007.062-.01.091v.006c-.002.015-.003.025-.004.04,0,.005-.002.015-.002.021-.001.012-.003.025-.004.037,0,.005-.002.02-.003.025-.001.012-.003.025-.004.037,0,.005-.002.018-.003.023-.001.012-.003.024-.004.036-.001.011-.002.015-.003.026,0,.01-.003.025-.004.035-.001.011-.002.015-.003.026-.001.012-.002.021-.004.033-.001.011-.002.019-.003.03-.001.01-.003.023-.004.032,0,.005-.002.02-.003.026-.001.012-.003.023-.004.035-.001.011-.001.013-.003.024-.005.046-.011.095-.016.141,0,.005,0,.008-.001.014-.002.015-.003.026-.005.041,0,.005-.002.015-.002.02-.002.015-.003.026-.005.04,0,.005-.002.015-.002.021-.001.012-.003.023-.004.035-.001.011-.002.017-.003.028-.001.01-.003.025-.004.034-.001.011-.002.013-.003.024-.001.012-.003.025-.004.037,0,.005-.002.017-.003.022-.001.012-.003.028-.005.04,0,.005-.002.014-.002.019-.001.012-.003.028-.005.04,0,.005-.002.015-.002.021-.008.068-.015.132-.023.199-.001.011-.001.009-.002.02-.002.015-.003.025-.005.04,0,.005-.002.014-.002.02-.001.012-.003.026-.005.038,0,.005-.002.019-.003.024-.001.012-.003.024-.004.036-.001.011-.001.013-.003.023-.001.012-.003.024-.004.036-.001.011-.002.015-.003.026l-.004.036c0,.005-.002.017-.003.022-.001.012-.003.026-.005.038,0,.005-.002.017-.003.022-.002.015-.003.026-.005.041v.009c-.01.073-.019.145-.027.218v.008c-.003.015-.005.029-.006.044,0,.005-.002.013-.002.018-.001.012-.004.03-.005.042,0,.005-.002.013-.002.018-.002.015-.003.027-.005.042-.001.011,0,.007-.002.018-.002.015-.004.028-.005.043,0,.005-.001.011-.002.017-.002.015-.004.029-.005.043,0,.005-.001.009-.002.015-.002.017-.004.031-.006.048h0c-.012.095-.023.186-.035.28,0,.005,0,.008-.002.013l-.005.044c0,.005-.001.011-.002.017-.001.012-.004.029-.005.041,0,.005-.002.015-.003.021-.002.015-.003.027-.005.042,0,.005-.001.01-.002.015-.002.015-.004.031-.006.046,0,.005,0,.008-.002.013-.002.017-.004.03-.006.047,0,.005,0,.006-.001.011-.002.017-.004.032-.006.049v.006c-.01.073-.019.145-.029.218v.01c-.004.017-.005.031-.008.048,0,.005,0,.006-.001.011-.002.017-.004.029-.006.046,0,.005-.001.008-.002.014-.002.015-.004.032-.006.047l-.002.013c-.002.014-.004.029-.006.043,0,.005-.002.014-.003.02-.002.012-.004.029-.005.041,0,.005-.002.012-.002.017-.002.014-.004.029-.006.043,0,.005,0,.007-.002.013-.012.092-.024.183-.036.275v.006c-.003.017-.005.03-.007.047,0,.005-.001.009-.002.014-.002.015-.004.032-.006.046,0,.005,0,.007-.002.012-.002.014-.004.03-.006.045,0,.005-.002.012-.002.018-.002.014-.004.026-.005.041,0,.005-.002.015-.003.02-.002.012-.004.028-.005.04,0,.005-.002.014-.003.019-.002.015-.004.028-.006.042v.008c-.011.072-.021.147-.031.219v.006c-.003.015-.005.029-.007.044,0,.005-.002.013-.002.018-.002.012-.004.027-.005.039,0,.005-.002.017-.003.022-.002.012-.003.024-.005.036l-.003.025c-.002.012-.004.026-.005.038q-.002.011-.003.022c-.002.012-.003.025-.005.037,0,.005-.003.019-.003.024-.002.014-.003.024-.005.038,0,.005-.001.01-.002.016-.002.014-.004.03-.006.044,0,.005,0,.002-.001.007-.01.07-.02.143-.03.213,0,.005-.001.009-.002.015-.002.017-.004.03-.007.047q0,.005-.002.011c-.002.017-.004.029-.006.046,0,.005-.001.01-.002.015-.002.015-.004.029-.006.043,0,.005-.002.011-.002.017-.002.014-.004.029-.006.043,0,.005-.002.011-.002.016-.002.017-.004.027-.006.044,0,.005-.001.007-.002.013-.002.017-.005.031-.007.048v.002c-.014.094-.027.189-.041.282v.006c-.003.017-.005.03-.008.047,0,.005-.001.009-.002.014-.002.014-.005.033-.007.047v.01c-.004.014-.006.034-.009.049,0,.005,0,.004-.001.01-.002.017-.005.033-.007.05,0,.005,0,.002-.001.008-.003.017-.005.034-.007.05v.008c-.012.074-.023.147-.034.221v.003c-.003.017-.005.033-.008.05v.009c-.003.014-.006.031-.008.045,0,.005-.002.011-.002.016-.002.014-.004.028-.006.043,0,.005-.002.011-.002.016-.002.014-.004.028-.006.042-.002.011-.001.008-.003.019-.002.014-.004.025-.006.04,0,.005-.002.014-.003.02-.002.012-.005.029-.006.041,0,.005-.001.01-.002.015-.002.017-.004.03-.007.046v.003c-.012.077-.023.148-.035.225v.003c-.003.017-.006.035-.008.052v.006c-.004.017-.006.035-.009.052v.007c-.003.017-.005.032-.008.049l-.002.011c-.002.014-.005.032-.007.047,0,.005-.001.008-.002.013-.002.014-.005.031-.007.046,0,.005-.001.007-.002.013-.003.017-.005.031-.007.048v.008c-.004.017-.006.034-.009.051v.002c-.012.074-.024.15-.035.224v.005c-.003.017-.006.034-.009.051,0,.005,0,.003-.001.008-.003.017-.005.03-.007.047,0,.005-.002.01-.002.015-.002.014-.005.028-.007.043,0,.005-.002.011-.003.016-.002.014-.005.03-.007.044,0,.005-.001.009-.002.014-.003.017-.004.028-.007.045,0,.005-.001.007-.002.013-.003.017-.005.03-.007.047v.008c-.013.074-.025.149-.037.223h0c-.003.017-.005.034-.008.051,0,.005,0,.003-.001.009-.003.017-.005.03-.007.046,0,.005-.001.008-.002.014-.002.014-.005.029-.007.043,0,.005-.002.012-.003.018-.002.014-.004.025-.006.039-.0013.0073-.0023.0143-.003.021-.002.012-.005.028-.006.04,0,.005-.002.011-.003.016-.002.014-.005.029-.007.043,0,.005-.001.008-.002.013-.015.091-.03.182-.044.272v.005c-.004.017-.006.03-.008.046,0,.005-.001.009-.002.015-.002.014-.005.032-.008.046q0,.005-.002.01c-.002.014-.006.034-.008.048l-.002.01c-.003.017-.005.033-.008.049,0,.005,0,.001-.001.007-.003.017-.006.035-.009.052v.005c-.004.019-.006.035-.01.054-.013.076-.025.152-.038.229h0c-.003.017-.006.035-.009.051v.008c-.004.017-.006.03-.009.047,0,.005-.001.008-.002.014-.002.014-.005.029-.007.043,0,.005-.002.011-.003.016-.002.014-.005.03-.008.045,0,.005-.001.008-.002.013-.002.014-.005.031-.008.045,0,.005-.001.008-.002.014-.003.017-.005.029-.008.045,0,.005-.001.008-.002.013-.003.017-.005.03-.008.046v.007c-.013.071-.026.145-.038.216v.008c-.004.017-.007.033-.01.05,0,.005,0,.003-.001.008-.003.017-.005.031-.008.048,0,.005-.001.007-.002.013-.002.014-.005.03-.008.045l-.003.015c-.002.014-.005.027-.007.042,0,.005-.002.014-.003.02-.002.012-.005.029-.007.041,0,.005-.001.008-.002.013-.003.017-.005.031-.008.048v.003c-.017.095-.033.188-.05.283h0c-.003.018-.006.034-.009.05,0,.005-.001.006-.002.011-.002.014-.006.033-.008.047l-.002.011c-.003.017-.006.032-.009.049v.008c-.004.017-.007.035-.01.052,0,.005,0,0,0,.004-.003.019-.006.033-.009.052v.008c-.017.09-.034.185-.051.275v.005c-.004.017-.006.031-.009.048,0,.005-.001.007-.002.012-.003.014-.006.032-.008.046,0,.005-.001.007-.002.012-.003.014-.006.031-.008.046l-.003.014c-.003.014-.005.031-.008.045,0,.005-.001.007-.002.012-.003.017-.006.031-.009.047,0,.005,0,.003-.002.009-.003.017-.006.034-.009.051h0c-.017.093-.033.182-.05.275,0,.005-.001.008-.002.013-.003.017-.005.028-.008.044,0,.005-.002.01-.003.015-.002.012-.005.029-.008.041,0,.005-.003.014-.004.019-.003.014-.005.026-.007.041,0,.005-.002.012-.003.018-.003.014-.005.026-.007.04,0,.005-.002.013-.003.018-.003.014-.005.029-.008.043q0,.005-.002.01c-.003.017-.006.031-.009.047l-.002.01c-.013.071-.027.144-.04.215v.005c-.004.017-.007.032-.01.049,0,.005,0,.004-.002.009-.003.017-.005.029-.008.045,0,.005-.002.01-.003.015-.003.014-.006.031-.009.045l-.002.01c-.003.017-.006.033-.009.05,0,.005,0,.002-.001.007-.003.017-.007.035-.01.052v.003c-.029.152-.058.301-.087.452h0c-.003.017-.007.036-.01.053l-.002.008c-.003.017-.007.034-.01.051,0,.005,0-.001,0,.004-.026.132-.05.26-.076.393v.003c-.004.019-.007.035-.011.053,0,.005,0-.002,0,.004-.004.019-.006.033-.01.052v.006c-.005.019-.008.032-.011.051v.005c-.005.019-.008.033-.011.052,0,.005,0,0-.001.006-.029.149-.059.298-.088.446v.004c-.005.019-.008.036-.012.055-.079.396-.16.792-.242,1.188h0c-.008.038-.015.074-.023.112v.004c-.032.151-.063.297-.095.447v.003c-.005.019-.008.036-.012.055h0c-.036.17-.072.338-.108.507h0c-.004.02-.008.038-.012.057h0c-.004.02-.008.037-.012.056-.001.005,0-.002,0,.003-.032.15-.065.298-.097.448-.001.005,0-.004,0,.001-.008.037-.016.073-.024.111v.003c-.005.019-.008.035-.013.054v.002c-.005.019-.008.036-.012.055v.002c-.034.15-.066.297-.099.446v.003c-.034.15-.067.295-.101.445v.004c-.005.019-.009.034-.013.053-.001.005,0-.002,0,.003-.004.019-.007.033-.012.052v.006c-.052.224-.103.446-.155.67h0c-.043.187-.086.372-.13.558v.004c-.045.187-.088.37-.133.556h0c-6.184,25.889-18.513,49.39-35.361,68.877-14.012,16.207-31.147,29.636-50.472,39.353-.005.002.003-.001-.002,0-.017.008-.031.016-.048.024l-.003.002c-.017.008-.03.015-.047.024l-.003.002c-.151.076-.297.149-.448.224l-.003.002-.046.023-.007.003c-.132.066-.266.132-.398.197h-.002c-.034.017-.066.034-.1.05h0c-.017.009-.032.016-.049.024l-.003.002c-.017.008-.03.015-.047.023-.005.002,0,0-.005.003-.132.065-.265.13-.397.195l-.005.002c-.017.008-.03.015-.046.023l-.004.002c-.017.008-.03.015-.047.023-.005.002,0,0-.004.002-.118.057-.232.113-.35.17h-.001c-.015.008-.03.015-.044.022q-.005.002-.009.004c-.013.006-.028.014-.041.02-.005.002-.008.004-.012.006-.013.006-.025.012-.038.018-.005.002-.009.004-.014.007-.015.007-.027.013-.042.02-.005.002,0,0-.005.003-.015.007-.031.015-.046.022l-.004.002c-.084.041-.165.08-.25.12h0c-.015.007-.028.014-.042.021-.005.002-.007.004-.012.006-.013.006-.029.014-.042.02-.005.002-.004.002-.009.004-.013.006-.029.014-.041.02l-.013.006c-.013.006-.026.012-.038.018-.005.002-.01.005-.014.007-.013.006-.025.012-.038.018-.005.002-.009.004-.014.007-.013.006-.028.013-.041.02h-.002c-.044.022-.087.042-.131.064-.009.005-.011.005-.021.01-.011.005-.02.009-.03.014-.005.002-.017.008-.022.01-.013.006-.02.009-.032.016-.005.002-.016.007-.02.01-.011.005-.022.01-.032.016-.005.002-.017.008-.022.01-.01.005-.018.009-.029.014-.009.004-.015.007-.024.011-.011.005-.022.01-.032.015q-.009.004-.018.009c-.01.005-.024.011-.035.016-.005.002-.012.006-.017.008-.011.005-.026.012-.037.017-.005.002-.013.006-.018.008-.011.005-.022.01-.032.016-.009.004-.013.006-.023.011-.057.027-.113.053-.17.08-.005.002-.014.007-.019.009-.011.005-.024.011-.035.016-.005.002-.012.006-.017.008-.01.005-.024.011-.034.016-.005.002-.015.007-.02.009-.013.006-.021.01-.034.016-.009.004-.008.004-.018.008-.013.006-.021.01-.034.016-.009.004-.011.005-.021.01-.011.005-.022.01-.033.016-.005.002-.012.006-.017.008-.013.006-.023.011-.036.017-.005.002-.011.005-.016.007-.064.03-.126.059-.19.089h-.001c-.015.008-.029.014-.044.021-.01.0047-.013.006-.009.004-.013.006-.026.012-.038.018-.005.002-.011.005-.016.007-.013.006-.026.012-.038.018-.005.002-.009.004-.014.006-.013.006-.023.011-.036.017-.009.004-.011.005-.02.009-.011.005-.023.011-.033.016-.005.002-.016.007-.02.009-.011.005-.021.01-.032.015-.005.002-.017.008-.022.01-.011.005-.023.011-.034.016-.005.002-.009.004-.014.006-.013.006-.026.012-.038.018-.009.004-.008.004-.018.008-.017.008-.039.018-.056.026-.014.006-.019.009-.033.015-.006.003-.018.008-.024.011l-.027.012c-.009.004-.021.01-.03.014-.005.002-.021.01-.025.012-.011.005-.017.008-.028.013-.009.004-.016.007-.025.012-.009.004-.019.009-.028.013s-.018.008-.028.013c-.009.004-.018.008-.027.012s-.015.007-.024.011c-.011.005-.019.009-.03.014-.009.004-.015.007-.025.011-.009.004-.02.009-.029.013-.005.002-.021.01-.026.012-.011.005-.017.008-.027.013-.009.004-.017.008-.027.012-.038.018-.076.035-.114.052-.01.004-.008.004-.018.008-.011.005-.016.008-.027.012-.009.004-.019.009-.029.013-.009.004-.015.007-.024.011-.009.004-.021.01-.031.014-.006.003-.016.007-.022.01-.009.004-.022.01-.031.015-.009.004-.016.007-.024.011-.009.004-.022.01-.032.015-.006.003-.013.006-.02.009-.009.004-.027.012-.036.017-.006.003-.014.006-.02.009-.014.006-.018.008-.032.015-.006.003-.016.008-.023.01-.009.004-.017.008-.027.012-.011.005-.018.008-.029.013-.019.009-.033.015-.052.024-.004.002-.007.003-.011.005-.014.006-.028.013-.042.019-.009.004-.013.006-.021.01-.014.006-.02.009-.035.016-.006.003-.013.006-.019.009-.009.004-.025.011-.034.016-.009.004-.012.006-.021.01-.01.004-.026.011-.035.016-.006.003-.014.006-.02.009-.01.004-.023.01-.032.015-.009.004-.015.007-.024.011-.01.004-.022.01-.031.014-.009.004-.015.007-.024.011-.01.004-.02.009-.029.013s-.016.007-.025.011c-.014.006-.024.011-.038.017-.004.002-.01.005-.014.006-.057.026-.11.05-.167.075-.002,0-.003.002-.005.003-.019.009-.03.013-.049.022-.002,0-.009.004-.011.005-.014.006-.03.013-.044.02-.004.002-.01.004-.014.006-.01.004-.031.014-.041.018-.004.002-.011.005-.015.007-.01.004-.029.013-.039.017-.006.003-.012.006-.019.008-.009.004-.028.013-.037.017-.004.002-.011.005-.016.007-.014.006-.028.012-.042.019-.004.002-.008.004-.013.006-.076.034-.145.065-.221.099-.004.002-.01.004-.014.006l-.041.018c-.006.003-.013.006-.019.009-.009.004-.023.01-.032.014-.006.003-.018.008-.024.011-.01.004-.024.011-.034.015-.006.003-.011.005-.018.008-.014.006-.028.013-.043.019-.004.002-.005.002-.01.004-.019.008-.031.014-.049.022-.002,0-.004.002-.006.003-.019.008-.032.014-.051.022-.002,0-.003.001-.005.002-.057.025-.111.049-.168.074-.002,0-.006.003-.008.004-.019.008-.027.012-.046.02-.004.002-.01.005-.015.007-.014.006-.027.012-.042.018-.004.002-.008.003-.012.005-.019.008-.026.011-.045.02-.004.002-.007.003-.012.005-.014.006-.028.012-.042.019-.006.003-.008.004-.015.006-.014.006-.026.012-.041.018-.004.002-.011.005-.015.007-.019.008-.028.012-.047.021-.002,0-.004.002-.006.003-.019.008-.036.016-.055.024h0c-.038.017-.074.033-.112.05-.002,0-.006.003-.008.004-.019.008-.031.014-.05.022h-.001c-.019.009-.033.015-.052.023-.004.002-.006.003-.01.005-.019.008-.028.012-.047.02-.002,0-.006.003-.009.004-.019.008-.027.012-.046.02-.004.002-.008.003-.012.005-.019.008-.026.011-.045.02-.004.002-.006.002-.01.004-.019.008-.029.013-.048.021-.002,0-.005.002-.007.003-.019.008-.035.015-.054.024h-.001c-.057.025-.114.05-.171.075h0c-.019.009-.035.015-.054.024-.002,0-.007.003-.009.004-.019.008-.027.012-.046.02-.004.002-.01.004-.014.006-.014.006-.028.012-.042.018-.004.002-.009.004-.013.006-.014.006-.029.013-.043.019l-.013.005c-.019.008-.028.012-.047.02-.002,0-.005.002-.007.003-.019.008-.029.013-.048.021-.004.002-.005.002-.01.004-.076.033-.148.064-.225.096-.004.002-.003.001-.007.003-.019.008-.031.013-.05.021-.002,0-.005.002-.007.003-.019.008-.029.012-.048.021-.002,0-.008.003-.01.004-.019.008-.028.012-.047.02-.002,0-.007.003-.009.004-.014.006-.03.013-.044.019-.004.002-.009.004-.014.006-.014.006-.031.013-.045.019-.002,0-.008.003-.01.004-.096.041-.187.08-.283.12-.002,0-.001,0-.004.002-.019.008-.031.013-.05.021-.004.002-.009.004-.013.005-.01.004-.031.013-.041.017-.007.003-.012.005-.018.008-.01.004-.03.012-.039.016-.004.002-.01.004-.014.006-.019.008-.026.011-.045.019-.004.002-.006.003-.01.004-.019.008-.032.013-.051.021l-.004.002c-.077.032-.151.064-.228.096l-.005.002c-.019.008-.03.013-.049.021-.004.002-.008.003-.013.005-.014.006-.031.013-.046.019-.002,0-.006.003-.008.004-.019.008-.03.013-.049.021-.002,0-.005.002-.007.003-.019.008-.033.014-.052.022l-.004.002c-.115.048-.228.095-.344.143h-.002c-.019.009-.036.015-.055.023l-.004.002c-.019.008-.035.014-.054.022h-.002c-.019.009-.035.016-.055.024-.002,0-.001,0-.003.001-.154.064-.305.126-.459.189-.002,0,0,0-.003.001-.019.008-.036.015-.055.023h-.002c-.019.009-.036.016-.055.023h-.003c-.019.009-.037.016-.056.024h0c-9.876,4.04-20.233,7.143-30.963,9.198h-.002c-.167.032-.331.063-.499.095-.002,0-.004,0-.006.001-.021.004-.038.007-.059.011h0c-.021.004-.041.008-.062.012h0c-.126.024-.25.047-.376.07h-.003c-.021.004-.04.008-.061.012h0c-.021.004-.041.008-.062.011h-.002c-.021.004-.041.008-.062.012h0c-.021.004-.039.007-.06.011h-.003c-.147.027-.292.053-.439.08h-.001c-.021.004-.037.007-.058.011-.002,0-.005,0-.007.001-.021.004-.036.006-.057.01h-.005c-.021.005-.037.007-.058.011h-.005c-.084.015-.166.03-.25.045h0c-.021.004-.039.007-.06.011-.002,0-.005,0-.007.001-.021.004-.033.006-.054.01-.005,0-.006,0-.011.002-.021.004-.031.006-.052.009-.002,0-.006.001-.009.002-.021.004-.03.005-.051.009-.002,0-.01.002-.013.002-.021.004-.029.005-.05.009-.005,0-.006.001-.011.002-.021.004-.032.006-.053.009-.002,0-.006,0-.008.001-.084.015-.165.029-.249.043h-.006c-.021.004-.034.006-.056.01-.002,0-.007.001-.009.002-.021.004-.03.005-.051.009-.005,0-.01.002-.015.002-.016.003-.031.005-.047.008-.005,0-.009.002-.014.002-.016.003-.032.005-.048.008-.005,0-.01.002-.014.002-.016.003-.032.005-.048.008-.005,0-.008.001-.013.002-.021.004-.032.005-.053.009-.002,0-.005,0-.008.001-.063.011-.123.021-.187.032-.002,0-.005,0-.008.001-.021.004-.032.006-.053.009-.002,0-.009.001-.011.002-.016.003-.034.006-.05.008-.005,0-.01.002-.015.003-.01.002-.033.005-.044.007-.007.001-.015.002-.022.004-.01.002-.029.005-.04.007-.007.001-.013.002-.02.004-.011.002-.03.005-.041.007-.007.001-.013.002-.02.003-.016.003-.026.004-.042.007-.007.001-.012.002-.019.003-.016.003-.028.005-.044.007-.005,0-.012.002-.017.003-.042.007-.082.014-.124.021h0c-.021.004-.038.006-.059.01-.005,0-.012.002-.017.003-.01.002-.031.005-.041.007-.01.001-.015.002-.025.004s-.027.004-.037.006c-.007.001-.015.003-.023.004-.01.002-.027.005-.038.006-.01.002-.015.003-.025.004-.01.002-.026.004-.037.006-.007.001-.016.003-.023.004-.011.002-.028.005-.039.006-.007.001-.016.003-.023.004-.016.003-.027.004-.043.007-.005,0-.011.002-.016.003-.016.003-.032.005-.048.008-.005,0-.01.002-.015.002-.021.003-.04.006-.061.01h-.003c-.021.003-.035.006-.056.009-.01.002-.013.002-.022.004-.016.003-.025.004-.041.007-.007.001-.012.002-.019.003-.01.002-.03.005-.041.007-.007.001-.017.003-.024.004-.011.002-.027.004-.037.006-.01.001-.015.002-.025.004-.011.002-.025.004-.035.006-.01.001-.016.003-.026.004-.011.002-.026.004-.037.006-.01.002-.015.002-.024.004-.01.002-.023.004-.034.005-.01.002-.019.003-.028.005-.011.002-.021.003-.031.005-.01.002-.02.003-.029.005-.011.002-.02.003-.031.005-.019.003-.036.006-.055.009-.01.002-.022.004-.033.005-.01.002-.02.003-.029.005-.01.002-.021.003-.031.005-.01.001-.02.003-.029.005-.011.002-.021.003-.032.005-.01.002-.018.003-.028.004-.011.002-.022.003-.032.005-.012.002-.018.003-.03.005-.01.002-.019.003-.03.005-.01.002-.022.004-.031.005-.011.002-.016.003-.027.004-.012.002-.023.004-.035.005-.005,0-.02.003-.025.004-.012.002-.022.003-.034.005-.005,0-.021.003-.027.004-.012.002-.023.004-.035.005-.011.002-.013.002-.023.004-.012.002-.025.004-.037.006-.005,0-.012.002-.017.003-.022.003-.043.007-.065.01-.016.002-.018.003-.034.005-.311.048-.62.071-.925.071-2.909,0-5.463-2.119-5.922-5.083l-.0343-.0149ZM403.021,510.9935c-.057.182-.121.363-.193.543-4.599,11.505-10.358,22.718-17.305,33.478h0c-.066.103-.133.206-.199.308-.003.005-.006.009-.009.014-.066.101-.131.201-.197.303-.001.002-.002.004-.004.006-.067.103-.134.206-.201.309q-.001.002-.003.004c-.016.025-.033.05-.049.075,0,.001-.002.004-.003.005-.051.078-.1.153-.151.23v.002c-.068.102-.135.204-.202.305-.003.004-.005.007-.008.011-.015.023-.03.046-.045.068-.004.005-.007.011-.011.016l-.144.218s-.004.006-.006.009c-.016.024-.031.046-.046.07-.004.005-.007.01-.01.016-.048.073-.096.145-.145.218-.002.003-.004.006-.006.009-.015.023-.03.045-.045.067-.004.007-.009.012-.013.019-.048.072-.098.147-.146.219-.001.002-.002.003-.003.005-.015.023-.03.044-.045.067-.006.009-.01.015-.016.024-.014.021-.028.043-.043.064,0,0-.002.002-.002.003-.03.046-.06.09-.09.135-.005.008-.01.015-.015.023-.013.02-.025.038-.038.057-.007.011-.014.021-.021.032-.013.02-.027.04-.04.06-.004.005-.007.01-.01.015-.028.042-.056.083-.084.125-.004.006-.01.015-.014.021-.013.02-.025.037-.038.057-.008.012-.016.024-.024.036l-.036.053c-.007.01-.013.019-.019.029-.026.038-.052.077-.078.115-.005.008-.01.014-.015.022-.012.018-.024.035-.036.053-.008.012-.017.025-.025.037-.013.019-.025.037-.038.055-.006.009-.012.017-.018.026-.044.066-.089.132-.134.197-.006.01-.013.019-.019.028-.013.02-.026.039-.039.058-.007.01-.012.018-.018.027-.03.044-.06.088-.09.133,0,0-.002.002-.002.004-.012.018-.024.035-.036.053-.008.012-.017.025-.025.037-.013.019-.026.038-.038.056-.007.01-.012.018-.019.028-.043.063-.087.128-.131.191-.008.012-.015.022-.023.034-.013.019-.025.037-.038.056-.006.009-.013.019-.019.028-.043.062-.085.124-.128.186-.01.014-.019.027-.028.041-.012.017-.023.033-.035.05-.009.013-.017.025-.026.037-.012.018-.024.034-.036.052-.008.012-.015.022-.023.033-.022.031-.043.062-.064.093-.01.014-.02.029-.029.043-.01.015-.021.03-.031.046-.011.016-.021.03-.032.046-.011.015-.02.028-.03.044-.015.021-.031.045-.046.066-.011.015-.021.031-.032.046-.014.02-.029.042-.043.062-.01.014-.02.028-.03.043-.012.017-.022.032-.034.049-.01.014-.019.028-.029.041-.013.018-.026.038-.039.056-.015.021-.028.041-.043.062-.013.018-.027.039-.04.057-.01.014-.021.029-.03.043-.01.015-.022.031-.032.046-.011.016-.021.03-.032.047-.011.016-.023.033-.034.049-.012.018-.025.036-.037.053-.016.023-.033.047-.049.071-.009.013-.017.025-.026.037-.013.018-.025.036-.038.054-.01.014-.019.026-.028.04-.012.017-.024.034-.036.051-.012.018-.024.035-.037.053-.017.024-.033.047-.05.071-.009.013-.017.025-.026.037-.013.019-.025.036-.038.055-.008.012-.018.026-.027.038-.016.022-.03.043-.046.066-.006.008-.011.016-.017.024-.021.03-.042.06-.063.09-.006.009-.012.018-.019.026-.016.022-.031.044-.047.066-.007.01-.015.021-.023.032-.015.021-.029.042-.044.063-.007.01-.015.021-.022.031-.02.029-.042.059-.062.088-.006.009-.013.018-.019.027-.014.02-.029.042-.044.062-.009.013-.018.025-.027.038-.015.021-.029.041-.044.062-.007.01-.013.019-.02.028-.021.03-.044.062-.065.092-.002.003-.005.007-.007.01-.019.026-.039.054-.058.081-.007.01-.014.019-.02.029-.015.021-.03.042-.045.063-.008.011-.016.022-.024.033-.021.03-.042.059-.063.089-.002.003-.005.007-.007.01-.019.026-.039.054-.057.081-.007.01-.014.02-.022.031-.016.022-.032.045-.048.068-.006.008-.012.017-.018.025l-.066.093c-.061.086-.122.17-.183.256-.021.029-.04.056-.061.085-.011.016-.019.027-.031.043-.021.029-.043.06-.064.089-.011.016-.016.023-.028.039-.019.027-.036.05-.056.077-.011.016-.025.035-.037.051-.019.027-.035.049-.054.075-.012.016-.026.036-.038.052-.019.027-.037.051-.056.077-.011.016-.025.035-.037.051-.021.029-.038.053-.059.082-.012.016-.021.029-.033.045-.023.032-.043.06-.066.092-.012.016-.014.019-.026.036-.023.032-.043.059-.066.09-.012.016-.015.021-.027.037-.023.032-.046.063-.069.094-.008.011-.016.022-.024.032-.023.032-.045.061-.068.093-.012.016-.013.018-.025.034-.025.034-.047.064-.072.098-.004.005-.017.023-.021.028-.023.032-.047.064-.07.096-.004.005-.019.026-.023.031-.023.032-.045.062-.068.094-.008.011-.017.023-.025.033-.023.032-.046.062-.069.094-.008.01-.016.022-.024.032-.025.034-.046.063-.071.097-.008.011-.014.019-.022.03-.025.034-.046.062-.071.097-.008.011-.014.019-.022.03-.025.034-.05.067-.075.102-.004.005-.014.019-.018.024-.025.034-.047.064-.072.098-.008.01-.014.018-.021.029-.025.034-.046.062-.071.097-.008.01-.014.019-.022.03-.023.031-.045.06-.068.092-.008.01-.018.025-.026.035-.023.031-.048.065-.072.096-.008.011-.013.018-.021.028-.025.034-.047.064-.073.098-.008.011-.013.018-.021.028-.025.034-.051.069-.076.103-.004.005-.013.017-.017.022-.025.034-.049.066-.074.1-.008.011-.012.016-.02.027-.023.031-.05.067-.074.099-.008.01-.012.016-.02.027-.023.031-.049.065-.072.097-.008.011-.014.019-.022.029-.025.034-.05.067-.076.101-.008.011-.01.013-.017.023-.024.031-.052.07-.076.101-.008.01-.011.014-.019.025-.023.031-.051.068-.074.099-.008.01-.012.016-.02.027-.024.031-.048.064-.072.095-.008.01-.015.02-.023.03-.024.031-.051.068-.075.099-.008.01-.011.014-.019.025-.025.034-.051.068-.077.102-.008.01-.01.012-.017.023-.026.034-.053.07-.078.103q-.008.011-.016.021c-.024.031-.052.068-.076.1-.008.01-.011.015-.02.026-.026.034-.051.067-.077.101-.008.01-.01.013-.018.023-.026.034-.05.066-.076.1-.008.01-.011.015-.019.025-.026.034-.051.067-.077.101-.004.005-.014.018-.017.023-.024.031-.051.067-.075.098-.004.005-.017.022-.021.027-.026.034-.05.066-.076.099-.004.005-.015.019-.018.024-.024.031-.051.066-.074.097-.004.005-.017.023-.021.028-.026.033-.05.065-.076.099-.004.005-.015.019-.019.024-.026.034-.05.065-.076.098-.004.005-.016.021-.02.026-.026.034-.051.066-.077.1-.004.005-.014.019-.018.024-.026.033-.051.066-.077.099-.004.005-.015.02-.019.025-.026.033-.052.067-.078.1-.004.005-.014.018-.018.023-.026.033-.05.065-.076.098-.008.01-.012.016-.02.026-.026.033-.051.066-.077.1-.004.005-.014.018-.018.023-.026.033-.052.066-.077.1-.004.005-.014.018-.018.023-.026.033-.052.067-.078.101-.004.005-.014.018-.018.023-.026.033-.051.066-.077.099-.008.01-.011.014-.019.024-.026.033-.054.069-.079.102-.004.005-.011.015-.016.02-.026.033-.053.068-.079.101-.008.01-.009.012-.018.022-.026.033-.053.067-.079.1-.008.01-.009.012-.017.022-.026.033-.052.066-.078.1-.008.01-.01.013-.018.023-.026.033-.055.07-.081.103-.008.01-.006.008-.014.018-.026.033-.054.069-.08.102-.008.01-.009.012-.017.022-.026.033-.052.067-.078.1-.008.01-.01.013-.018.023-.026.033-.053.067-.079.1-.008.01-.009.012-.017.022-.026.033-.054.068-.08.102q-.008.01-.016.021c-.026.033-.053.067-.079.1-.008.01-.01.012-.018.023-.026.033-.053.067-.079.1-.004.005-.014.017-.018.022-.026.033-.053.067-.079.1-.004.005-.013.017-.017.022-.028.036-.053.067-.081.102-.004.005-.011.014-.015.019-.026.033-.055.069-.081.102l-.016.02c-.026.033-.055.069-.081.102-.004.005-.011.015-.016.02-.026.033-.054.068-.08.101-.004.005-.013.017-.017.022l-.081.101c-.004.005-.012.014-.016.02-.026.033-.054.068-.081.101-.004.005-.013.016-.017.021-.028.035-.053.066-.081.101-.004.005-.012.014-.016.02-.028.035-.054.067-.082.102-.004.005-.011.013-.015.018-.028.035-.056.07-.084.105-.004.005-.009.011-.013.016-.028.035-.055.068-.083.103-.004.005-.011.014-.016.019-.028.035-.055.069-.084.104-.004.005-.009.011-.013.016-.028.035-.056.069-.084.104-.004.005-.01.012-.014.017-.029.035-.057.07-.085.105l-.012.015c-.028.035-.057.07-.086.106l-.012.015c-.029.035-.059.072-.087.107-.004.005-.006.007-.01.012-.029.035-.059.073-.088.108-.004.005-.007.009-.011.014-.029.035-.061.074-.089.109l-.007.009c-.029.035-.062.076-.091.111l-.008.01c-.031.038-.061.074-.091.112l-.006.007c-.031.038-.061.074-.091.111l-.008.01c-.031.037-.061.074-.092.112l-.005.006c-.033.04-.061.074-.094.114l-.005.006c-.033.04-.061.074-.094.114l-.004.005c-.031.037-.062.075-.093.112-.004.005-.003.004-.008.009-.031.037-.062.075-.093.113l-.004.004c-.033.04-.062.075-.095.115l-.004.005c-.033.04-.062.074-.095.114l-.004.005c-.033.04-.061.074-.094.114-.004.005,0,.001-.005.006-.033.04-.062.075-.095.114-.004.005.002-.002-.002.003-.033.04-.063.075-.096.115l-.004.005c-.033.04-.063.075-.096.114-.004.005,0-.001-.003.004-.033.04-.062.074-.095.114-.004.005-.001.002-.005.007-.031.037-.065.078-.096.115h0c-.033.04-.065.078-.098.117l-.002.003c-.033.039-.064.077-.097.116l-.002.002c-.033.04-.064.077-.098.116l-.002.003c-.066.079-.131.156-.198.234h0c-.067.08-.132.158-.199.236h0c-14.052,16.593-30.393,30.316-48.222,41.038l-.004.002c-.042.025-.084.05-.126.076h0c-.037.022-.076.046-.113.068-.011.006-.007.004-.018.011-.037.022-.075.045-.112.067l-.014.008c-.04.024-.075.045-.115.069l-.012.007c-.042.025-.08.048-.122.073l-.003.002c-.04.024-.076.045-.115.069-.005.003-.009.005-.015.009-.037.022-.072.043-.109.065-.005.003-.013.008-.018.011-.035.021-.072.043-.107.063-.005.003-.016.01-.022.013-.034.021-.07.042-.105.062-.005.003-.017.01-.022.013-.032.019-.069.041-.101.06-.005.003-.023.014-.029.017-.034.021-.066.039-.101.06-.005.003-.02.012-.025.015-.034.02-.067.039-.101.06-.005.003-.022.013-.027.016-.034.02-.07.041-.104.062-.005.003-.016.009-.021.012-.035.02-.07.041-.105.062-.005.003-.019.011-.024.014-.035.02-.069.041-.104.061-.005.003-.018.01-.024.014-.032.019-.069.04-.101.059-.011.006-.018.011-.029.017-.032.019-.064.038-.096.056-.011.006-.022.013-.032.019-.032.019-.06.035-.092.054-.011.006-.027.016-.038.022-.032.019-.062.036-.094.055-.011.006-.02.012-.031.018-.032.019-.064.037-.095.056-.011.006-.023.013-.034.02-.032.019-.065.037-.097.056-.01.006-.019.011-.029.017-.032.019-.065.038-.097.056-.011.006-.022.013-.033.019-.032.019-.063.036-.095.055-.011.006-.022.012-.033.019-.032.018-.062.036-.094.054-.011.006-.025.015-.036.021-.029.017-.062.036-.092.053-.011.006-.026.015-.036.021l-.088.051c-.016.009-.028.016-.044.025-.029.017-.055.032-.085.048-.016.009-.026.015-.042.024-.029.017-.058.033-.087.05-.016.009-.026.015-.042.024-.029.017-.058.033-.088.05-.016.009-.023.013-.039.022-.029.017-.058.033-.088.05-.016.009-.027.015-.043.025-.03.017-.056.032-.085.049-.016.009-.027.015-.043.024-.03.017-.055.031-.084.048-.016.009-.03.017-.046.026-.03.017-.053.03-.082.047-.016.009-.03.017-.047.026-.027.015-.053.03-.08.045-.016.009-.036.02-.052.029-.024.014-.053.03-.077.044-.016.009-.034.019-.05.028-.024.014-.055.031-.079.045-.016.009-.034.019-.05.028-.027.015-.054.031-.081.046-.016.009-.029.017-.045.026-.03.017-.053.03-.083.047-.016.009-.032.018-.048.027-.027.015-.054.031-.081.046-.016.009-.03.017-.047.026-.027.015-.054.03-.081.045-.016.009-.034.019-.05.028-.027.015-.052.029-.078.044-.016.009-.034.019-.05.028-.024.014-.053.03-.077.043-.016.009-.04.022-.056.031-.024.013-.048.027-.072.041-.022.012-.034.019-.055.031-.024.013-.05.028-.074.041-.021.012-.035.02-.057.032-.024.013-.049.027-.073.041-.022.012-.032.018-.054.03-.024.014-.05.028-.074.041-.021.012-.036.02-.057.032-.024.013-.048.027-.072.04-.022.012-.034.019-.056.031-.024.013-.049.027-.073.04-.022.012-.036.02-.057.032-.024.013-.049.027-.073.04-.022.012-.034.019-.056.031-.024.013-.047.026-.072.039-.022.012-.04.022-.061.034s-.047.026-.069.038-.037.021-.059.032c-.021.012-.049.027-.071.039s-.038.021-.06.033c-.024.013-.047.026-.071.039-.022.012-.034.018-.055.03-.027.015-.048.026-.075.041-.022.012-.036.02-.058.031-.024.013-.046.025-.071.039-.022.012-.037.02-.059.032-.024.013-.047.026-.071.039-.022.012-.038.021-.06.033-.024.013-.045.025-.069.038-.022.012-.038.021-.06.033-.021.012-.047.025-.068.037-.022.012-.043.023-.065.035-.022.012-.043.023-.065.035-.022.012-.042.022-.063.034-.024.013-.043.023-.067.036-.022.012-.042.023-.063.034-.024.013-.043.023-.068.036-.016.009-.044.024-.06.032-.024.013-.046.025-.07.038-.022.012-.042.023-.064.034-.022.012-.043.023-.065.035-.022.012-.043.023-.065.035-.021.012-.043.023-.065.035-.022.012-.045.024-.067.036s-.042.022-.063.034c-.022.012-.045.024-.067.036-.022.012-.04.021-.061.033-.027.015-.047.025-.074.04-.016.009-.039.021-.056.03-.027.014-.045.024-.072.039-.022.012-.038.02-.06.032-.027.015-.042.022-.069.037-.022.011-.041.022-.062.033-.027.014-.039.021-.066.035-.022.011-.043.023-.064.034-.027.015-.041.022-.069.036-.021.011-.04.021-.061.033-.027.015-.042.022-.069.036-.022.011-.039.021-.061.032-.027.015-.047.025-.074.039-.019.01-.036.019-.055.029-.027.014-.049.026-.077.041-.019.01-.035.018-.053.028-.027.015-.052.027-.079.042-.019.01-.032.017-.051.027-.027.014-.049.026-.077.041-.019.01-.036.019-.055.029-.027.014-.049.026-.076.04-.019.01-.035.019-.054.029-.027.014-.048.025-.075.039-.019.01-.037.02-.056.03-.027.014-.05.026-.077.04-.019.01-.034.018-.053.028-.027.014-.053.028-.081.042-.016.009-.032.017-.049.025-.027.014-.058.03-.085.044-.016.009-.029.015-.045.024-.027.014-.059.031-.086.045-.016.009-.028.015-.045.023-.027.014-.061.032-.089.046-.014.007-.029.015-.042.022-.027.014-.061.031-.088.046-.014.007-.03.016-.044.023-.028.014-.061.031-.088.046-.014.007-.029.015-.043.022-.027.014-.057.029-.084.044-.016.009-.032.016-.048.025-.027.014-.057.029-.084.043-.014.007-.033.017-.046.024-.028.014-.063.032-.09.046-.014.007-.025.013-.039.02-.027.014-.068.035-.096.049-.011.006-.024.013-.035.018-.027.014-.069.035-.096.049-.011.006-.024.012-.035.018-.027.014-.07.036-.098.05-.011.006-.023.012-.034.017-.027.014-.071.036-.098.05-.011.006-.022.011-.033.017-.033.017-.065.033-.098.05-.011.006-.023.012-.034.017-.033.017-.065.033-.098.05-.011.005-.022.011-.033.017-.038.02-.064.032-.102.052-.008.004-.021.01-.029.015-.039.02-.068.035-.107.054-.008.004-.016.008-.024.012-.039.02-.072.036-.11.056-.005.003-.016.008-.022.011-.039.02-.076.038-.115.058-.005.003-.011.005-.016.008-.039.02-.078.039-.116.059-.005.003-.01.005-.016.008-.039.019-.076.038-.115.057-.005.003-.012.006-.018.009-.039.019-.076.038-.115.058-.005.003-.012.006-.018.009-.039.019-.073.037-.112.056-.008.004-.012.006-.021.01l-.116.058c-.005.003-.01.005-.016.008-.044.022-.078.039-.123.061-.003.001-.006.003-.008.004-.044.022-.084.042-.128.064l-.003.002c-17.263,8.598-35.643,14.557-54.489,17.772-4.071.677-7.927-2.064-8.622-6.136-.207-1.213-.11-2.408.235-3.506.817-2.599,3.026-4.66,5.896-5.15,47.248-8.067,88.628-33.981,116.517-72.969,8.506-11.891,15.542-24.733,20.913-38.169,1.537-3.846,5.902-5.718,9.748-4.18,3.666,1.465,5.538,5.5,4.374,9.205l.0051-.0096Z"/>
  </g>
</svg>