<?xml version="1.0" encoding="UTF-8"?>
<svg id="Layer_1" data-name="Layer 1" xmlns="http://www.w3.org/2000/svg" version="1.1" viewBox="0 0 50 50">
  <defs>
    <style>
      .cls-1 {
        fill: #000;
        fill-rule: evenodd;
        stroke-width: 0px;
      }
    </style>
  </defs>
  <path class="cls-1" d="M25-.5c-6.7709,0-7.6042,0-10.3126.1042-2.7083.1042-4.4792.5208-6.0417,1.1458-1.6666.625-3.0209,1.4583-4.4792,2.9167-1.3542,1.3542-2.2917,2.8125-2.9167,4.4792C.625,9.7083.2083,11.5833.1041,14.1875c-.1041,2.7083-.1041,3.5417-.1041,10.3125s0,7.6042.1041,10.3125.5208,4.4792,1.1458,6.0417c.625,1.6667,1.4584,3.0208,2.9167,4.4792,1.3542,1.3542,2.8125,2.2917,4.4792,2.9167,1.5625.625,3.4375,1.0417,6.0417,1.1458,2.7083.1042,3.5417.1042,10.3126.1042s7.6042,0,10.3126-.1042c2.7083-.1042,4.4792-.5208,6.0417-1.1458,1.6666-.625,3.0209-1.4583,4.4792-2.9167,1.3542-1.3542,2.2917-2.8125,2.9167-4.4792.625-1.5625,1.0417-3.4375,1.1458-6.0417.1041-2.7083.1041-3.5417.1041-10.3125s0-7.6042-.1041-10.3125-.5208-4.4792-1.1458-6.0417c-.625-1.6667-1.4584-3.0208-2.9167-4.4792-1.3542-1.3542-2.8125-2.2917-4.4792-2.9167-1.5625-.625-3.4375-1.0417-6.0417-1.1458-2.7084-.1042-3.5417-.1042-10.3126-.1042ZM25,3.9791c6.6667,0,7.5,0,10.1042.1042,2.3958.1042,3.75.5208,4.6875.8333,1.1458.4167,1.9792,1.0417,2.9167,1.875.8333.8333,1.4584,1.6667,1.875,2.9167.3125.8333.7292,2.1875.8333,4.6875.1041,2.6042.1041,3.4375.1041,10.1042s0,7.5-.1041,10.1042c-.1041,2.3958-.5208,3.75-.8333,4.6875-.4167,1.1458-1.0417,1.9792-1.875,2.9167-.8333.8333-1.6666,1.4583-2.9167,1.875-.8333.3125-2.1875.7292-4.6875.8333-2.6042.1042-3.4375.1042-10.1042.1042s-7.5,0-10.1042-.1042c-2.3958-.1042-3.75-.5208-4.6875-.8333-1.1458-.4167-1.9792-1.0417-2.9167-1.875-.8333-.8333-1.4584-1.6667-1.875-2.9167-.3125-.8333-.7292-2.1875-.8333-4.6875-.1041-2.6042-.1041-3.4375-.1041-10.1042s0-7.5.1041-10.1042c.1041-2.3958.5208-3.75.8333-4.6875.4167-1.1458,1.0417-1.9792,1.875-2.9167.8333-.8333,1.6666-1.4583,2.9167-1.875.8333-.3125,2.1875-.7292,4.6875-.8333,2.6042-.1042,3.4375-.1042,10.1042-.1042ZM25,11.6875c-7.0833,0-12.8125,5.7292-12.8125,12.8125s5.7292,12.8125,12.8125,12.8125,12.8125-5.7292,12.8125-12.8125-5.7292-12.8125-12.8125-12.8125ZM25,32.8334c-4.5834,0-8.3334-3.75-8.3334-8.3334s3.75-8.3334,8.3334-8.3334,8.3334,3.75,8.3334,8.3334-3.75,8.3334-8.3334,8.3334ZM41.3542,11.1667c0,1.6667-1.3542,3.0208-3.0209,3.0208s-3.0209-1.3542-3.0209-3.0208,1.3542-3.0208,3.0209-3.0208c1.6667,0,3.0209,1.3542,3.0209,3.0208Z"/>
</svg>